<svg xmlns="http://www.w3.org/2000/svg" width="11" height="11" viewBox="0 0 11 11" fill="none">
  <circle cx="5.5" cy="5.5" r="5.5" fill="white"/>
  <path d="M5.5 11C2.47908 11 0 8.52092 0 5.5C0 2.47908 2.47908 0 5.5 0C8.52092 0 11 2.47908 11 5.5C11 8.52092 8.52092 11 5.5 11ZM6.14453 2.92188C6.14453 2.56657 5.85531 2.27734 5.5 2.27734C5.14469 2.27734 4.85547 2.56657 4.85547 2.92188V6.14453C4.85547 6.49984 5.14469 6.78906 5.5 6.78906C5.85531 6.78906 6.14453 6.49984 6.14453 6.14453V2.92188ZM5.5 7.43359C5.14469 7.43359 4.85547 7.72282 4.85547 8.07812C4.85547 8.43343 5.14469 8.72266 5.5 8.72266C5.85531 8.72266 6.14453 8.43343 6.14453 8.07812C6.14453 7.72282 5.85531 7.43359 5.5 7.43359Z" fill="#FF2323"/>
</svg>