<svg xmlns="http://www.w3.org/2000/svg" width="20" height="16" viewBox="0 0 20 16" fill="none">
  <path d="M13.6884 5.14038C13.532 4.08881 12.9198 3.18431 12.0603 2.6136C12.1537 1.29936 13.2801 0.250459 14.6709 0.25L13.6884 5.14038ZM13.6884 5.14038C13.9925 5.26061 14.3231 5.32826 14.6709 5.32826C16.1241 5.32826 17.2898 4.18493 17.2898 2.78925C17.2898 1.39334 16.1241 0.250039 14.6709 0.25L13.6884 5.14038ZM15.7492 12.8543V12.2239C15.7492 10.3276 14.5363 8.70905 12.8347 8.05204C13.3184 7.49161 13.6345 6.78962 13.7077 6.01861H15.8883C17.7821 6.01861 19.3113 7.51533 19.3113 9.33967V12.0694L19.2396 12.1047C19.2395 12.1048 19.2394 12.1049 19.2392 12.105C19.1696 12.1389 17.9263 12.7353 15.7492 12.8543ZM14.492 14.9843L14.4914 14.9846C14.4213 15.0193 12.8944 15.7547 10.2413 15.7547C8.88314 15.7547 7.22841 15.5624 5.31967 14.9826C5.31962 14.9825 5.31958 14.9825 5.31953 14.9825L5.28424 14.9718V12.2196C5.28424 10.395 6.81346 8.89805 8.70751 8.89805H11.1419C13.0359 8.89805 14.5651 10.395 14.5644 12.2195V12.2196V14.9487L14.492 14.9843ZM7.01426 8.05207C5.31224 8.70936 4.09972 10.3275 4.09924 12.2238V12.2239V12.8311C2.97909 12.7483 1.70404 12.5334 0.285761 12.103C0.285586 12.1029 0.285412 12.1029 0.285237 12.1028L0.25 12.092V9.33967C0.25 7.51534 1.77919 6.01861 3.67327 6.01861H6.10739C6.11882 6.01861 6.13021 6.01873 6.1416 6.01896C6.2151 6.7895 6.53078 7.49168 7.01426 8.05207ZM12.5438 5.66869C12.5438 7.0644 11.3781 8.20794 9.92494 8.20794C8.4719 8.20794 7.30555 7.06454 7.30555 5.66893C7.30555 4.27329 8.47193 3.12968 9.92494 3.12968C11.3779 3.12968 12.5438 4.27302 12.5438 5.66869ZM6.19041 4.99103C5.80703 5.20495 5.36434 5.32874 4.89094 5.32874C3.4375 5.32874 2.27204 4.18518 2.27204 2.78996C2.27204 1.39402 3.43752 0.250712 4.89094 0.250712C6.34339 0.250712 7.50935 1.39402 7.50935 2.78996C7.50935 2.79996 7.50914 2.80937 7.50878 2.81873C6.83671 3.35953 6.3575 4.12078 6.19041 4.99103Z" fill="url(#paint0_linear_13401_331)"/>
  <path d="M13.6884 5.14038C13.532 4.08881 12.9198 3.18431 12.0603 2.6136C12.1537 1.29936 13.2801 0.250459 14.6709 0.25L13.6884 5.14038ZM13.6884 5.14038C13.9925 5.26061 14.3231 5.32826 14.6709 5.32826C16.1241 5.32826 17.2898 4.18493 17.2898 2.78925C17.2898 1.39334 16.1241 0.250039 14.6709 0.25L13.6884 5.14038ZM15.7492 12.8543V12.2239C15.7492 10.3276 14.5363 8.70905 12.8347 8.05204C13.3184 7.49161 13.6345 6.78962 13.7077 6.01861H15.8883C17.7821 6.01861 19.3113 7.51533 19.3113 9.33967V12.0694L19.2396 12.1047C19.2395 12.1048 19.2394 12.1049 19.2392 12.105C19.1696 12.1389 17.9263 12.7353 15.7492 12.8543ZM14.492 14.9843L14.4914 14.9846C14.4213 15.0193 12.8944 15.7547 10.2413 15.7547C8.88314 15.7547 7.22841 15.5624 5.31967 14.9826C5.31962 14.9825 5.31958 14.9825 5.31953 14.9825L5.28424 14.9718V12.2196C5.28424 10.395 6.81346 8.89805 8.70751 8.89805H11.1419C13.0359 8.89805 14.5651 10.395 14.5644 12.2195V12.2196V14.9487L14.492 14.9843ZM7.01426 8.05207C5.31224 8.70936 4.09972 10.3275 4.09924 12.2238V12.2239V12.8311C2.97909 12.7483 1.70404 12.5334 0.285761 12.103C0.285586 12.1029 0.285412 12.1029 0.285237 12.1028L0.25 12.092V9.33967C0.25 7.51534 1.77919 6.01861 3.67327 6.01861H6.10739C6.11882 6.01861 6.13021 6.01873 6.1416 6.01896C6.2151 6.7895 6.53078 7.49168 7.01426 8.05207ZM12.5438 5.66869C12.5438 7.0644 11.3781 8.20794 9.92494 8.20794C8.4719 8.20794 7.30555 7.06454 7.30555 5.66893C7.30555 4.27329 8.47193 3.12968 9.92494 3.12968C11.3779 3.12968 12.5438 4.27302 12.5438 5.66869ZM6.19041 4.99103C5.80703 5.20495 5.36434 5.32874 4.89094 5.32874C3.4375 5.32874 2.27204 4.18518 2.27204 2.78996C2.27204 1.39402 3.43752 0.250712 4.89094 0.250712C6.34339 0.250712 7.50935 1.39402 7.50935 2.78996C7.50935 2.79996 7.50914 2.80937 7.50878 2.81873C6.83671 3.35953 6.3575 4.12078 6.19041 4.99103Z" fill="url(#paint1_linear_13401_331)"/>
  <path d="M13.6884 5.14038C13.532 4.08881 12.9198 3.18431 12.0603 2.6136C12.1537 1.29936 13.2801 0.250459 14.6709 0.25L13.6884 5.14038ZM13.6884 5.14038C13.9925 5.26061 14.3231 5.32826 14.6709 5.32826C16.1241 5.32826 17.2898 4.18493 17.2898 2.78925C17.2898 1.39334 16.1241 0.250039 14.6709 0.25L13.6884 5.14038ZM15.7492 12.8543V12.2239C15.7492 10.3276 14.5363 8.70905 12.8347 8.05204C13.3184 7.49161 13.6345 6.78962 13.7077 6.01861H15.8883C17.7821 6.01861 19.3113 7.51533 19.3113 9.33967V12.0694L19.2396 12.1047C19.2395 12.1048 19.2394 12.1049 19.2392 12.105C19.1696 12.1389 17.9263 12.7353 15.7492 12.8543ZM14.492 14.9843L14.4914 14.9846C14.4213 15.0193 12.8944 15.7547 10.2413 15.7547C8.88314 15.7547 7.22841 15.5624 5.31967 14.9826C5.31962 14.9825 5.31958 14.9825 5.31953 14.9825L5.28424 14.9718V12.2196C5.28424 10.395 6.81346 8.89805 8.70751 8.89805H11.1419C13.0359 8.89805 14.5651 10.395 14.5644 12.2195V12.2196V14.9487L14.492 14.9843ZM7.01426 8.05207C5.31224 8.70936 4.09972 10.3275 4.09924 12.2238V12.2239V12.8311C2.97909 12.7483 1.70404 12.5334 0.285761 12.103C0.285586 12.1029 0.285412 12.1029 0.285237 12.1028L0.25 12.092V9.33967C0.25 7.51534 1.77919 6.01861 3.67327 6.01861H6.10739C6.11882 6.01861 6.13021 6.01873 6.1416 6.01896C6.2151 6.7895 6.53078 7.49168 7.01426 8.05207ZM12.5438 5.66869C12.5438 7.0644 11.3781 8.20794 9.92494 8.20794C8.4719 8.20794 7.30555 7.06454 7.30555 5.66893C7.30555 4.27329 8.47193 3.12968 9.92494 3.12968C11.3779 3.12968 12.5438 4.27302 12.5438 5.66869ZM6.19041 4.99103C5.80703 5.20495 5.36434 5.32874 4.89094 5.32874C3.4375 5.32874 2.27204 4.18518 2.27204 2.78996C2.27204 1.39402 3.43752 0.250712 4.89094 0.250712C6.34339 0.250712 7.50935 1.39402 7.50935 2.78996C7.50935 2.79996 7.50914 2.80937 7.50878 2.81873C6.83671 3.35953 6.3575 4.12078 6.19041 4.99103Z" stroke="white" stroke-width="0.5" stroke-linejoin="round"/>
  <defs>
    <linearGradient id="paint0_linear_13401_331" x1="9.78066" y1="0" x2="9.78066" y2="16.0047" gradientUnits="userSpaceOnUse">
      <stop stop-color="white"/>
      <stop offset="0.525" stop-color="white"/>
      <stop offset="1" stop-color="#E7BBFF"/>
    </linearGradient>
    <linearGradient id="paint1_linear_13401_331" x1="9.78066" y1="0" x2="9.78066" y2="16.0047" gradientUnits="userSpaceOnUse">
      <stop stop-color="white"/>
      <stop offset="0.255" stop-color="white"/>
      <stop offset="0.525" stop-color="white"/>
      <stop offset="1" stop-color="#E7BBFF"/>
    </linearGradient>
  </defs>
</svg>