<svg width="18" height="18" viewBox="0 0 18 18" fill="none" xmlns="http://www.w3.org/2000/svg">
<path d="M17.0013 12.5692L17.0012 12.5702C16.7343 14.7213 14.9678 16.4878 12.8167 16.7547L12.8166 16.7547C11.5111 16.9169 10.2977 16.5603 9.35145 15.8648L9.35096 15.8645C8.94042 15.5642 9.04682 14.9413 9.52213 14.7987L9.52335 14.7983C10.8274 14.3999 12.0137 13.6872 12.9779 12.723C13.9422 11.7588 14.6548 10.5725 15.0533 9.26838L15.0534 9.26799C15.1951 8.80151 15.8186 8.69277 16.1195 9.09616C16.8436 10.0999 17.1589 11.3415 17.0013 12.5692ZM6.37382 5.65661L6.37383 5.65659L6.3706 5.65551C6.33539 5.64377 6.31218 5.63588 6.29555 5.62963C6.29383 5.60751 6.29308 5.57456 6.29452 5.52541L6.29463 5.52541V5.51806C6.29463 5.46457 6.31315 5.42349 6.33457 5.3988C6.35516 5.37507 6.37595 5.36789 6.39371 5.36789H7.67083C7.77952 5.36789 7.91466 5.47569 7.91466 5.67131C7.91466 5.90483 8.00689 6.11865 8.15659 6.27799L6.37382 5.65661ZM9.37594 7.05624C9.23598 6.85408 9.0531 6.68967 8.83224 6.5594C9.30621 6.54384 9.69178 6.14876 9.69178 5.67131C9.69178 4.63075 8.94699 3.77437 7.97107 3.62169C7.88817 3.21775 7.52718 2.90964 7.10039 2.90964C6.68545 2.90964 6.33273 3.20085 6.23726 3.58822C5.26742 3.66671 4.50899 4.50984 4.50899 5.50954C4.50899 5.95184 4.60943 6.33729 4.82842 6.65176C4.9706 6.85594 5.15618 7.02075 5.37929 7.14988C4.90041 7.15976 4.50899 7.5572 4.50899 8.03825C4.50899 9.07881 5.25378 9.93519 6.22971 10.0879C6.3126 10.4918 6.67359 10.7999 7.10039 10.7999C7.51841 10.7999 7.8733 10.5044 7.9656 10.1127C8.93444 10.0331 9.69178 9.19049 9.69178 8.1915C9.69178 7.75398 9.59371 7.37079 9.37594 7.05624ZM6.28612 8.03825C6.28612 7.79843 6.18884 7.57939 6.03193 7.41879L7.82695 8.04444L7.8271 8.04449C7.86271 8.05687 7.88509 8.06483 7.90073 8.07102C7.90386 8.09507 7.90614 8.13253 7.90614 8.1915C7.90614 8.24499 7.88763 8.28607 7.86621 8.31076C7.84561 8.3345 7.82482 8.34167 7.80706 8.34167H6.52994C6.42126 8.34167 6.28612 8.23387 6.28612 8.03825ZM0.539062 6.84627C0.539062 3.2296 3.4752 0.293457 7.09187 0.293457C10.7079 0.293457 13.6363 3.22898 13.6447 6.84642C13.6446 10.463 10.7085 13.3991 7.09187 13.3991C3.4752 13.3991 0.539062 10.4629 0.539062 6.84627Z" fill="url(#paint0_linear_15390_1342)"/>
<path d="M17.0013 12.5692L17.0012 12.5702C16.7343 14.7213 14.9678 16.4878 12.8167 16.7547L12.8166 16.7547C11.5111 16.9169 10.2977 16.5603 9.35145 15.8648L9.35096 15.8645C8.94042 15.5642 9.04682 14.9413 9.52213 14.7987L9.52335 14.7983C10.8274 14.3999 12.0137 13.6872 12.9779 12.723C13.9422 11.7588 14.6548 10.5725 15.0533 9.26838L15.0534 9.26799C15.1951 8.80151 15.8186 8.69277 16.1195 9.09616C16.8436 10.0999 17.1589 11.3415 17.0013 12.5692ZM6.37382 5.65661L6.37383 5.65659L6.3706 5.65551C6.33539 5.64377 6.31218 5.63588 6.29555 5.62963C6.29383 5.60751 6.29308 5.57456 6.29452 5.52541L6.29463 5.52541V5.51806C6.29463 5.46457 6.31315 5.42349 6.33457 5.3988C6.35516 5.37507 6.37595 5.36789 6.39371 5.36789H7.67083C7.77952 5.36789 7.91466 5.47569 7.91466 5.67131C7.91466 5.90483 8.00689 6.11865 8.15659 6.27799L6.37382 5.65661ZM9.37594 7.05624C9.23598 6.85408 9.0531 6.68967 8.83224 6.5594C9.30621 6.54384 9.69178 6.14876 9.69178 5.67131C9.69178 4.63075 8.94699 3.77437 7.97107 3.62169C7.88817 3.21775 7.52718 2.90964 7.10039 2.90964C6.68545 2.90964 6.33273 3.20085 6.23726 3.58822C5.26742 3.66671 4.50899 4.50984 4.50899 5.50954C4.50899 5.95184 4.60943 6.33729 4.82842 6.65176C4.9706 6.85594 5.15618 7.02075 5.37929 7.14988C4.90041 7.15976 4.50899 7.5572 4.50899 8.03825C4.50899 9.07881 5.25378 9.93519 6.22971 10.0879C6.3126 10.4918 6.67359 10.7999 7.10039 10.7999C7.51841 10.7999 7.8733 10.5044 7.9656 10.1127C8.93444 10.0331 9.69178 9.19049 9.69178 8.1915C9.69178 7.75398 9.59371 7.37079 9.37594 7.05624ZM6.28612 8.03825C6.28612 7.79843 6.18884 7.57939 6.03193 7.41879L7.82695 8.04444L7.8271 8.04449C7.86271 8.05687 7.88509 8.06483 7.90073 8.07102C7.90386 8.09507 7.90614 8.13253 7.90614 8.1915C7.90614 8.24499 7.88763 8.28607 7.86621 8.31076C7.84561 8.3345 7.82482 8.34167 7.80706 8.34167H6.52994C6.42126 8.34167 6.28612 8.23387 6.28612 8.03825ZM0.539062 6.84627C0.539062 3.2296 3.4752 0.293457 7.09187 0.293457C10.7079 0.293457 13.6363 3.22898 13.6447 6.84642C13.6446 10.463 10.7085 13.3991 7.09187 13.3991C3.4752 13.3991 0.539062 10.4629 0.539062 6.84627Z" fill="url(#paint1_linear_15390_1342)"/>
<path d="M17.0013 12.5692L17.0012 12.5702C16.7343 14.7213 14.9678 16.4878 12.8167 16.7547L12.8166 16.7547C11.5111 16.9169 10.2977 16.5603 9.35145 15.8648L9.35096 15.8645C8.94042 15.5642 9.04682 14.9413 9.52213 14.7987L9.52335 14.7983C10.8274 14.3999 12.0137 13.6872 12.9779 12.723C13.9422 11.7588 14.6548 10.5725 15.0533 9.26838L15.0534 9.26799C15.1951 8.80151 15.8186 8.69277 16.1195 9.09616C16.8436 10.0999 17.1589 11.3415 17.0013 12.5692ZM6.37382 5.65661L6.37383 5.65659L6.3706 5.65551C6.33539 5.64377 6.31218 5.63588 6.29555 5.62963C6.29383 5.60751 6.29308 5.57456 6.29452 5.52541L6.29463 5.52541V5.51806C6.29463 5.46457 6.31315 5.42349 6.33457 5.3988C6.35516 5.37507 6.37595 5.36789 6.39371 5.36789H7.67083C7.77952 5.36789 7.91466 5.47569 7.91466 5.67131C7.91466 5.90483 8.00689 6.11865 8.15659 6.27799L6.37382 5.65661ZM9.37594 7.05624C9.23598 6.85408 9.0531 6.68967 8.83224 6.5594C9.30621 6.54384 9.69178 6.14876 9.69178 5.67131C9.69178 4.63075 8.94699 3.77437 7.97107 3.62169C7.88817 3.21775 7.52718 2.90964 7.10039 2.90964C6.68545 2.90964 6.33273 3.20085 6.23726 3.58822C5.26742 3.66671 4.50899 4.50984 4.50899 5.50954C4.50899 5.95184 4.60943 6.33729 4.82842 6.65176C4.9706 6.85594 5.15618 7.02075 5.37929 7.14988C4.90041 7.15976 4.50899 7.5572 4.50899 8.03825C4.50899 9.07881 5.25378 9.93519 6.22971 10.0879C6.3126 10.4918 6.67359 10.7999 7.10039 10.7999C7.51841 10.7999 7.8733 10.5044 7.9656 10.1127C8.93444 10.0331 9.69178 9.19049 9.69178 8.1915C9.69178 7.75398 9.59371 7.37079 9.37594 7.05624ZM6.28612 8.03825C6.28612 7.79843 6.18884 7.57939 6.03193 7.41879L7.82695 8.04444L7.8271 8.04449C7.86271 8.05687 7.88509 8.06483 7.90073 8.07102C7.90386 8.09507 7.90614 8.13253 7.90614 8.1915C7.90614 8.24499 7.88763 8.28607 7.86621 8.31076C7.84561 8.3345 7.82482 8.34167 7.80706 8.34167H6.52994C6.42126 8.34167 6.28612 8.23387 6.28612 8.03825ZM0.539062 6.84627C0.539062 3.2296 3.4752 0.293457 7.09187 0.293457C10.7079 0.293457 13.6363 3.22898 13.6447 6.84642C13.6446 10.463 10.7085 13.3991 7.09187 13.3991C3.4752 13.3991 0.539062 10.4629 0.539062 6.84627Z" stroke="white" stroke-width="0.5" stroke-linejoin="round"/>
<defs>
<linearGradient id="paint0_linear_15390_1342" x1="8.79002" y1="0.043457" x2="8.79002" y2="17.0435" gradientUnits="userSpaceOnUse">
<stop stop-color="white"/>
<stop offset="0.525" stop-color="white"/>
<stop offset="1" stop-color="#E7BBFF"/>
</linearGradient>
<linearGradient id="paint1_linear_15390_1342" x1="8.79002" y1="0.043457" x2="8.79002" y2="17.0435" gradientUnits="userSpaceOnUse">
<stop stop-color="white"/>
<stop offset="0.255" stop-color="white"/>
<stop offset="0.525" stop-color="white"/>
<stop offset="1" stop-color="#E7BBFF"/>
</linearGradient>
</defs>
</svg>
