<svg width="103" height="29" viewBox="0 0 103 29" fill="none" xmlns="http://www.w3.org/2000/svg">
<g clip-path="url(#clip0_6833_22)">
<rect width="103" height="29" rx="14.5" fill="url(#paint0_linear_6833_22)"/>
<g filter="url(#filter0_f_6833_22)">
<path d="M11.9245 8C5.33882 8 0 12.701 0 18.5C0 18.504 0 18.5079 0 18.5119C0.00135015 17.3932 0.201509 16.3153 0.570943 15.3043C2.65354 22.8857 10.2004 28.5887 19.3341 29H83.6659C92.7996 28.5887 100.346 22.8857 102.429 15.3043C102.798 16.3153 102.999 17.3932 103 18.5119C103 18.5079 103 18.504 103 18.5C103 12.701 97.6612 8 91.0755 8H11.9245Z" fill="#FEBF35"/>
</g>
<path d="M2.08984 22.5302L6.7937 19.7676L12.3935 22.5302L13.9615 27.0847L12.3935 30.7432H2.08984V22.5302Z" fill="#F9A20B" fill-opacity="0.7"/>
<path d="M101.277 22.7626L96.5735 20L90.9737 22.7626L89.4057 27.3171L90.9737 30.9757H101.277V22.7626Z" fill="#F9A20B" fill-opacity="0.7"/>
<path d="M12.656 31.9463L13.2916 26.5284L18.8737 23.73L23.4516 25.2281L25.4229 28.6861L19.2053 36.9024L12.656 31.9463Z" fill="#E2950E" fill-opacity="0.7"/>
<path d="M90.7131 32.1788L90.0775 26.7608L84.4955 23.9625L79.9175 25.4605L77.9463 28.9185L84.1639 37.1348L90.7131 32.1788Z" fill="#E2950E" fill-opacity="0.7"/>
<g filter="url(#filter1_ii_6833_22)">
<path d="M11.5609 4H91.4391L99 14L91.4391 24H11.5609L4 14L11.5609 4Z" fill="white" fill-opacity="0.2"/>
</g>
<rect x="-7" width="115.73" height="5.82383" fill="url(#paint1_radial_6833_22)"/>
</g>
<defs>
<filter id="filter0_f_6833_22" x="-0.447987" y="7.55201" width="103.896" height="21.896" filterUnits="userSpaceOnUse" color-interpolation-filters="sRGB">
<feFlood flood-opacity="0" result="BackgroundImageFix"/>
<feBlend mode="normal" in="SourceGraphic" in2="BackgroundImageFix" result="shape"/>
<feGaussianBlur stdDeviation="0.223993" result="effect1_foregroundBlur_6833_22"/>
</filter>
<filter id="filter1_ii_6833_22" x="4" y="3.40268" width="95" height="21.1946" filterUnits="userSpaceOnUse" color-interpolation-filters="sRGB">
<feFlood flood-opacity="0" result="BackgroundImageFix"/>
<feBlend mode="normal" in="SourceGraphic" in2="BackgroundImageFix" result="shape"/>
<feColorMatrix in="SourceAlpha" type="matrix" values="0 0 0 0 0 0 0 0 0 0 0 0 0 0 0 0 0 0 127 0" result="hardAlpha"/>
<feOffset dy="0.597315"/>
<feGaussianBlur stdDeviation="0.298658"/>
<feComposite in2="hardAlpha" operator="arithmetic" k2="-1" k3="1"/>
<feColorMatrix type="matrix" values="0 0 0 0 1 0 0 0 0 1 0 0 0 0 1 0 0 0 0.3 0"/>
<feBlend mode="normal" in2="shape" result="effect1_innerShadow_6833_22"/>
<feColorMatrix in="SourceAlpha" type="matrix" values="0 0 0 0 0 0 0 0 0 0 0 0 0 0 0 0 0 0 127 0" result="hardAlpha"/>
<feOffset dy="-0.597315"/>
<feGaussianBlur stdDeviation="0.298658"/>
<feComposite in2="hardAlpha" operator="arithmetic" k2="-1" k3="1"/>
<feColorMatrix type="matrix" values="0 0 0 0 1 0 0 0 0 1 0 0 0 0 1 0 0 0 0.3 0"/>
<feBlend mode="normal" in2="effect1_innerShadow_6833_22" result="effect2_innerShadow_6833_22"/>
</filter>
<linearGradient id="paint0_linear_6833_22" x1="51.5" y1="0" x2="51.5" y2="29" gradientUnits="userSpaceOnUse">
<stop stop-color="#FCEB10"/>
<stop offset="1" stop-color="#FDB405"/>
</linearGradient>
<radialGradient id="paint1_radial_6833_22" cx="0" cy="0" r="1" gradientUnits="userSpaceOnUse" gradientTransform="translate(50.8649 2.91191) rotate(90) scale(2.91191 57.8649)">
<stop offset="0.347917" stop-color="white"/>
<stop offset="1" stop-color="white" stop-opacity="0"/>
</radialGradient>
<clipPath id="clip0_6833_22">
<rect width="103" height="29" rx="14.5" fill="white"/>
</clipPath>
</defs>
</svg>
