<svg xmlns="http://www.w3.org/2000/svg" width="367" height="54" fill="none" xmlns:v="https://vecta.io/nano"><g filter="url(#B)"><mask id="A" maskUnits="userSpaceOnUse" x="-1" y="-1" width="368" height="53" fill="#000"><path fill="#fff" d="M-1-1h368v53H-1z"/><path d="M29.562 18.833c-5.146 4.123-10.431 7.961-15.855 11.513 4.035 1.55 9.064 4.532 15.088 8.947l.767 1.031c-2.427 3.436-4.218 5.395-5.373 5.877-7.909-5.292-12.339-7.939-13.29-7.939l-.855 9.211c-1.082-.044-2.295-.066-3.64-.066s-2.822.022-4.43.066l.987-12.522c-1.243-.556-1.864-1.864-1.864-3.926 0-.015.007-.029.022-.044 0-2.091.782-3.414 2.347-3.969.117-2.032.175-3.969.175-5.811 0-1.828-.058-3.56-.175-5.197.848-.512 3.582-1.023 8.202-1.535.088 1.462.131 2.814.131 4.057s-.044 2.368-.131 3.377c.877 0 5.395-3.414 13.553-10.241l4.342 7.171zm19.978-5.987c4.576 1.023 8.114 3.56 10.614 7.61 1.754 2.851 2.632 5.863 2.632 9.035 0 1.345-.154 2.712-.461 4.101-1.053 4.693-3.567 8.341-7.544 10.943-2.851 1.886-5.863 2.829-9.035 2.829-1.257 0-2.529-.146-3.816-.439-4.576-1.023-8.114-3.56-10.614-7.61-1.754-2.851-2.632-5.863-2.632-9.035 0-1.345.154-2.712.461-4.101 1.038-4.708 3.553-8.363 7.544-10.965 2.851-1.871 5.863-2.807 9.035-2.807 1.243 0 2.515.146 3.816.439zm-1.952 7.478a9.3 9.3 0 0 0-2.083-.241c-1.769 0-3.45.534-5.044 1.601-2.222 1.477-3.626 3.538-4.21 6.184a10.99 10.99 0 0 0-.263 2.346c0 1.769.483 3.443 1.447 5.022 1.374 2.281 3.333 3.706 5.877 4.276.702.161 1.396.241 2.083.241 1.769 0 3.458-.534 5.066-1.601 2.208-1.477 3.611-3.538 4.211-6.184.175-.79.263-1.557.263-2.303 0-1.784-.482-3.479-1.447-5.088-1.389-2.266-3.355-3.684-5.899-4.254zm27.127-8.421c-.512 5.366-.768 12.193-.768 20.483v8.443c6.053-1.535 10.146-2.303 12.281-2.303h1.535v8.18h-1.031c-2.061 0-6.835.943-14.32 2.829h-.263c-4.094-.629-6.14-3.107-6.14-7.434v-4.605c0-8.289.175-16.477.526-24.562 2.968-.512 5.694-.855 8.18-1.031zm31.82-3.575h1.272c3.392 0 6.718 6.572 9.978 19.715l2.346-.066c.615 2.281 1.243 5.102 1.886 8.465-.731.117-1.542.212-2.434.285l1.535 7.676v.767l-8.18 1.294-1.535-9.474c-1.871 0-5.541.168-11.008.504-.892 3.041-2.003 6.367-3.334 9.978-4.635-1.067-7.193-1.835-7.675-2.303l5.373-15.592c3.582-10.643 6.483-17.303 8.706-19.978.95-.848 1.973-1.272 3.07-1.272zm.263 12.04l-3.333 8.684h.263l5.877-.241v-.263c-.512-2.164-1.367-4.89-2.566-8.18h-.241zm24.737-10.241c2.676 0 5.833 4.262 9.474 12.785.336.132.76.987 1.272 2.566 3.128-5.176 5.862-9.445 8.202-12.807 1.579-1.535 3.114-2.303 4.605-2.303 3.07.629 4.605 2.763 4.605 6.404v11.513c0 6.477.256 11.849.768 16.119-3.801.687-6.448 1.031-7.939 1.031h-.263l-.241-1.031-.263-18.662-5.373 8.947c-1.535 1.199-2.902 1.798-4.101 1.798-2.939 0-5.497-2.99-7.676-8.969-.848-1.184-1.272-1.952-1.272-2.303-.336.058-.504.234-.504.526 0 2.134-.256 8.611-.768 19.43h-.263c-.541 0-3.187-.168-7.938-.504l2.061-28.662c.731-3.918 2.602-5.877 5.614-5.877zm49.869 39.54c-.497-6.798-.746-13.092-.746-18.882 0-6.959.358-13.195 1.075-18.706 3.172.088 6.104.219 8.794.395-.702 5.132-1.053 9.415-1.053 12.851v.767l1.842.022c4.035 0 8.151-.344 12.347-1.031 0-4.035.109-8.918.329-14.649 1.842-.248 3.772-.373 5.789-.373.804 0 1.616.022 2.435.066l-.505 13.772 2.917-.373.438 8.158-3.399.68v.68c0 2.749.234 6.66.702 11.733l-8.202 1.294c-.365-2.178-.548-5.205-.548-9.079l.044-3.465c-4.62.819-9.394 1.243-14.32 1.272-.044.658-.066 1.352-.066 2.083 0 3.07.256 6.952.767 11.645-3.26.585-6.14.965-8.64 1.14zM231.23 8.329h1.272c3.392 0 6.718 6.572 9.978 19.715l2.346-.066c.614 2.281 1.243 5.102 1.886 8.465-.731.117-1.542.212-2.434.285l1.535 7.676v.767l-8.18 1.294-1.535-9.474c-1.871 0-5.541.168-11.009.504-.891 3.041-2.003 6.367-3.333 9.978-4.634-1.067-7.193-1.835-7.675-2.303l5.372-15.592c3.582-10.643 6.484-17.303 8.707-19.978.95-.848 1.973-1.272 3.07-1.272zm.263 12.04l-3.333 8.684h.263l5.877-.241v-.263c-.512-2.164-1.367-4.89-2.566-8.18h-.241zm28.641-10h.767c9.722 0 16.63 4.181 20.724 12.544.863 1.915 1.294 4.137 1.294 6.667v.241c0 7.252-2.793 12.354-8.377 15.307-5.571 2.939-12.756 4.408-21.558 4.408-2.09 0-3.289-1.535-3.596-4.605 0-.848-.088-4.488-.263-10.921-.161-6.433-.585-12.347-1.272-17.741 0-3.933 4.093-5.899 12.281-5.899zm-3.312 8.465c.643 8.918 1.002 16.521 1.075 22.807 11.213-1.214 16.82-5.322 16.82-12.325 0-4.751-3.151-8.165-9.452-10.241a18.31 18.31 0 0 0-4.364-.504h-1.535l-2.544.263zm30.549-5.636c1.213 0 3.859.424 7.938 1.272-.775 3.714-1.162 8.589-1.162 14.627 0 4.459.212 9.562.636 15.307-3.26.175-5.819.263-7.676.263-.701-6.55-1.052-12.427-1.052-17.632l.022-3.026c.175-5.921.606-9.525 1.294-10.811zM292.634.412c1.564 0 2.902.563 4.013 1.689s1.667 2.485 1.667 4.079c0 1.579-.556 2.931-1.667 4.057s-2.449 1.689-4.013 1.689a5.43 5.43 0 0 1-4.013-1.689c-1.097-1.126-1.645-2.478-1.645-4.057 0-1.594.548-2.953 1.645-4.079a5.43 5.43 0 0 1 4.013-1.689zm20.57 7.917h1.272c3.392 0 6.718 6.572 9.978 19.715l2.347-.066c.614 2.281 1.242 5.102 1.886 8.465-.731.117-1.543.212-2.435.285l1.536 7.676v.767l-8.18 1.294-1.535-9.474c-1.872 0-5.541.168-11.009.504-.892 3.041-2.003 6.367-3.334 9.978-4.634-1.067-7.193-1.835-7.675-2.303l5.373-15.592c3.582-10.643 6.484-17.303 8.706-19.978.95-.848 1.974-1.272 3.07-1.272zm.263 12.04l-3.333 8.684h.263l5.877-.241v-.263c-.511-2.164-1.367-4.89-2.565-8.18h-.242zm18.202 29.298c-.497-6.798-.745-13.092-.745-18.882 0-6.959.358-13.195 1.074-18.706 3.173.088 6.104.219 8.794.395-.702 5.132-1.053 9.415-1.053 12.851v.767l1.843.022c4.035 0 8.15-.344 12.346-1.031 0-4.035.11-8.918.329-14.649 1.842-.248 3.772-.373 5.79-.373a45.46 45.46 0 0 1 2.434.066l-.505 13.772 2.917-.373.439 8.158-3.399.68v.68c0 2.749.233 6.66.701 11.733l-8.201 1.294c-.366-2.178-.549-5.205-.549-9.079l.044-3.465c-4.62.819-9.393 1.243-14.32 1.272-.044.658-.066 1.352-.066 2.083 0 3.07.256 6.952.768 11.645-3.261.585-6.141.965-8.641 1.14z"/></mask><path d="M29.562 18.833c-5.146 4.123-10.431 7.961-15.855 11.513 4.035 1.55 9.064 4.532 15.088 8.947l.767 1.031c-2.427 3.436-4.218 5.395-5.373 5.877-7.909-5.292-12.339-7.939-13.29-7.939l-.855 9.211c-1.082-.044-2.295-.066-3.64-.066s-2.822.022-4.43.066l.987-12.522c-1.243-.556-1.864-1.864-1.864-3.926 0-.015.007-.029.022-.044 0-2.091.782-3.414 2.347-3.969.117-2.032.175-3.969.175-5.811 0-1.828-.058-3.56-.175-5.197.848-.512 3.582-1.023 8.202-1.535.088 1.462.131 2.814.131 4.057s-.044 2.368-.131 3.377c.877 0 5.395-3.414 13.553-10.241l4.342 7.171zm19.978-5.987c4.576 1.023 8.114 3.56 10.614 7.61 1.754 2.851 2.632 5.863 2.632 9.035 0 1.345-.154 2.712-.461 4.101-1.053 4.693-3.567 8.341-7.544 10.943-2.851 1.886-5.863 2.829-9.035 2.829-1.257 0-2.529-.146-3.816-.439-4.576-1.023-8.114-3.56-10.614-7.61-1.754-2.851-2.632-5.863-2.632-9.035 0-1.345.154-2.712.461-4.101 1.038-4.708 3.553-8.363 7.544-10.965 2.851-1.871 5.863-2.807 9.035-2.807 1.243 0 2.515.146 3.816.439zm-1.952 7.478a9.3 9.3 0 0 0-2.083-.241c-1.769 0-3.45.534-5.044 1.601-2.222 1.477-3.626 3.538-4.21 6.184a10.99 10.99 0 0 0-.263 2.346c0 1.769.483 3.443 1.447 5.022 1.374 2.281 3.333 3.706 5.877 4.276.702.161 1.396.241 2.083.241 1.769 0 3.458-.534 5.066-1.601 2.208-1.477 3.611-3.538 4.211-6.184.175-.79.263-1.557.263-2.303 0-1.784-.482-3.479-1.447-5.088-1.389-2.266-3.355-3.684-5.899-4.254zm27.127-8.421c-.512 5.366-.768 12.193-.768 20.483v8.443c6.053-1.535 10.146-2.303 12.281-2.303h1.535v8.18h-1.031c-2.061 0-6.835.943-14.32 2.829h-.263c-4.094-.629-6.14-3.107-6.14-7.434v-4.605c0-8.289.175-16.477.526-24.562 2.968-.512 5.694-.855 8.18-1.031zm31.82-3.575h1.272c3.392 0 6.718 6.572 9.978 19.715l2.346-.066c.615 2.281 1.243 5.102 1.886 8.465-.731.117-1.542.212-2.434.285l1.535 7.676v.767l-8.18 1.294-1.535-9.474c-1.871 0-5.541.168-11.008.504-.892 3.041-2.003 6.367-3.334 9.978-4.635-1.067-7.193-1.835-7.675-2.303l5.373-15.592c3.582-10.643 6.483-17.303 8.706-19.978.95-.848 1.973-1.272 3.07-1.272zm.263 12.04l-3.333 8.684h.263l5.877-.241v-.263c-.512-2.164-1.367-4.89-2.566-8.18h-.241zm24.737-10.241c2.676 0 5.833 4.262 9.474 12.785.336.132.76.987 1.272 2.566 3.128-5.176 5.862-9.445 8.202-12.807 1.579-1.535 3.114-2.303 4.605-2.303 3.07.629 4.605 2.763 4.605 6.404v11.513c0 6.477.256 11.849.768 16.119-3.801.687-6.448 1.031-7.939 1.031h-.263l-.241-1.031-.263-18.662-5.373 8.947c-1.535 1.199-2.902 1.798-4.101 1.798-2.939 0-5.497-2.99-7.676-8.969-.848-1.184-1.272-1.952-1.272-2.303-.336.058-.504.234-.504.526 0 2.134-.256 8.611-.768 19.43h-.263c-.541 0-3.187-.168-7.938-.504l2.061-28.662c.731-3.918 2.602-5.877 5.614-5.877zm49.869 39.54c-.497-6.798-.746-13.092-.746-18.882 0-6.959.358-13.195 1.075-18.706 3.172.088 6.104.219 8.794.395-.702 5.132-1.053 9.415-1.053 12.851v.767l1.842.022c4.035 0 8.151-.344 12.347-1.031 0-4.035.109-8.918.329-14.649 1.842-.248 3.772-.373 5.789-.373.804 0 1.616.022 2.435.066l-.505 13.772 2.917-.373.438 8.158-3.399.68v.68c0 2.749.234 6.66.702 11.733l-8.202 1.294c-.365-2.178-.548-5.205-.548-9.079l.044-3.465c-4.62.819-9.394 1.243-14.32 1.272-.044.658-.066 1.352-.066 2.083 0 3.07.256 6.952.767 11.645-3.26.585-6.14.965-8.64 1.14zM231.23 8.329h1.272c3.392 0 6.718 6.572 9.978 19.715l2.346-.066c.614 2.281 1.243 5.102 1.886 8.465-.731.117-1.542.212-2.434.285l1.535 7.676v.767l-8.18 1.294-1.535-9.474c-1.871 0-5.541.168-11.009.504-.891 3.041-2.003 6.367-3.333 9.978-4.634-1.067-7.193-1.835-7.675-2.303l5.372-15.592c3.582-10.643 6.484-17.303 8.707-19.978.95-.848 1.973-1.272 3.07-1.272zm.263 12.04l-3.333 8.684h.263l5.877-.241v-.263c-.512-2.164-1.367-4.89-2.566-8.18h-.241zm28.641-10h.767c9.722 0 16.63 4.181 20.724 12.544.863 1.915 1.294 4.137 1.294 6.667v.241c0 7.252-2.793 12.354-8.377 15.307-5.571 2.939-12.756 4.408-21.558 4.408-2.09 0-3.289-1.535-3.596-4.605 0-.848-.088-4.488-.263-10.921-.161-6.433-.585-12.347-1.272-17.741 0-3.933 4.093-5.899 12.281-5.899zm-3.312 8.465c.643 8.918 1.002 16.521 1.075 22.807 11.213-1.214 16.82-5.322 16.82-12.325 0-4.751-3.151-8.165-9.452-10.241a18.31 18.31 0 0 0-4.364-.504h-1.535l-2.544.263zm30.549-5.636c1.213 0 3.859.424 7.938 1.272-.775 3.714-1.162 8.589-1.162 14.627 0 4.459.212 9.562.636 15.307-3.26.175-5.819.263-7.676.263-.701-6.55-1.052-12.427-1.052-17.632l.022-3.026c.175-5.921.606-9.525 1.294-10.811zM292.634.412c1.564 0 2.902.563 4.013 1.689s1.667 2.485 1.667 4.079c0 1.579-.556 2.931-1.667 4.057s-2.449 1.689-4.013 1.689a5.43 5.43 0 0 1-4.013-1.689c-1.097-1.126-1.645-2.478-1.645-4.057 0-1.594.548-2.953 1.645-4.079a5.43 5.43 0 0 1 4.013-1.689zm20.57 7.917h1.272c3.392 0 6.718 6.572 9.978 19.715l2.347-.066c.614 2.281 1.242 5.102 1.886 8.465-.731.117-1.543.212-2.435.285l1.536 7.676v.767l-8.18 1.294-1.535-9.474c-1.872 0-5.541.168-11.009.504-.892 3.041-2.003 6.367-3.334 9.978-4.634-1.067-7.193-1.835-7.675-2.303l5.373-15.592c3.582-10.643 6.484-17.303 8.706-19.978.95-.848 1.974-1.272 3.07-1.272zm.263 12.04l-3.333 8.684h.263l5.877-.241v-.263c-.511-2.164-1.367-4.89-2.565-8.18h-.242zm18.202 29.298c-.497-6.798-.745-13.092-.745-18.882 0-6.959.358-13.195 1.074-18.706 3.173.088 6.104.219 8.794.395-.702 5.132-1.053 9.415-1.053 12.851v.767l1.843.022c4.035 0 8.15-.344 12.346-1.031 0-4.035.11-8.918.329-14.649 1.842-.248 3.772-.373 5.79-.373a45.46 45.46 0 0 1 2.434.066l-.505 13.772 2.917-.373.439 8.158-3.399.68v.68c0 2.749.233 6.66.701 11.733l-8.201 1.294c-.366-2.178-.549-5.205-.549-9.079l.044-3.465c-4.62.819-9.393 1.243-14.32 1.272-.044.658-.066 1.352-.066 2.083 0 3.07.256 6.952.768 11.645-3.261.585-6.141.965-8.641 1.14z" fill="url(#C)"/><path d="M29.562 18.833l.824 1.029.902-.723-.599-.989-1.128.683zM13.706 30.346l-.722-1.103-2.154 1.411 2.403.923.473-1.231zm15.088 8.947l1.057-.787-.118-.159-.16-.117-.779 1.063zm.767 1.031l1.077.761.552-.781-.571-.767-1.057.787zm-5.373 5.877l-.733 1.096.588.394.653-.273-.508-1.216zm-13.29-7.939v-1.318H9.715l-.126 1.178 1.311.141zm-.855 9.211l-.053 1.317 1.262.051.105-1.259-1.314-.109zm-8.07 0l-1.313-.117-.131 1.475 1.48-.04-.036-1.318zm.987-12.522h1.318v-.855l-.78-.349-.538 1.204zm-1.842-3.969l.932.932.386-.386v-.546H1.118zm2.347-3.969l.441 1.242.825-.293.05-.874-1.316-.076zm0-11.009l-.681-1.129-.691.417.058.805 1.315-.094zm8.202-1.535l1.316-.079-.083-1.384-1.378.153.145 1.31zm0 7.434l-1.313-.114-.125 1.432h1.438v-1.318zM25.22 11.662l1.128-.683-.796-1.314-1.178.986.846 1.011zm3.518 6.142c-5.114 4.097-10.365 7.91-15.753 11.439l1.445 2.206a206.38 206.38 0 0 0 15.957-11.587l-1.648-2.058zM13.234 31.577c3.875 1.488 8.794 4.392 14.781 8.78l1.559-2.127c-6.06-4.442-11.199-7.503-15.395-9.115l-.945 2.461zm14.503 8.504l.768 1.031 2.115-1.575-.768-1.031-2.115 1.575zm.748-.517c-1.198 1.696-2.216 2.995-3.06 3.917-.879.962-1.452 1.382-1.745 1.504l1.016 2.433c.862-.36 1.763-1.161 2.674-2.158.948-1.037 2.038-2.435 3.267-4.175l-2.154-1.521zm-3.563 5.542c-3.961-2.65-7.068-4.65-9.311-5.99-1.12-.669-2.045-1.186-2.764-1.54-.359-.176-.688-.323-.977-.428-.254-.092-.608-.203-.97-.203v2.637c-.124 0-.132-.028.069.045a7.55 7.55 0 0 1 .714.316c.626.308 1.481.783 2.576 1.437 2.186 1.306 5.249 3.276 9.197 5.918l1.466-2.191zM9.588 38.123l-.858 9.242 2.628.219.852-9.18-2.622-.281zm.509 8.034a92.02 92.02 0 0 0-3.694-.067v2.637a89.33 89.33 0 0 1 3.587.065l.107-2.635zm-3.694-.067a164.86 164.86 0 0 0-4.466.066l.072 2.636 4.394-.065V46.09zM3.287 47.59l.992-12.638H1.642c0 .86-.32 4.948-.982 12.405l2.626.233zm.212-13.842c-.542-.242-1.084-.877-1.084-2.722H-.222c0 2.278.701 4.26 2.644 5.129l1.076-2.407zm-1.084-2.722c0 .458-.235.759-.364.888L.186 30.05a1.38 1.38 0 0 0-.408.976h2.637zm.022-.044c0-.891.168-1.491.403-1.889.221-.374.55-.654 1.066-.838l-.882-2.485c-1.048.372-1.892 1.031-2.454 1.98-.547.925-.77 2.032-.77 3.231h2.637zm2.344-3.894a102.63 102.63 0 0 0 .178-5.887H2.322c0 1.814-.058 3.726-.173 5.736l2.632.151zm.178-5.887a74.4 74.4 0 0 0-.179-5.291l-2.63.188c.114 1.603.172 3.304.172 5.104h2.637zm-.813-4.069c.06-.036.255-.126.671-.245.394-.113.916-.232 1.577-.356 1.32-.247 3.122-.499 5.418-.753l-.29-2.621c-2.324.257-4.199.518-5.613.782-.706.132-1.315.269-1.816.412-.48.137-.945.303-1.309.523l1.362 2.257zm6.205-2.585c.086 1.44.129 2.766.129 3.978h2.637a69.41 69.41 0 0 0-.134-4.136l-2.632.158zm.129 3.978a37.95 37.95 0 0 1-.127 3.263l2.627.228c.092-1.054.137-2.219.137-3.491H10.48zm1.187 4.695c.433 0 .836-.178 1.068-.289a9.79 9.79 0 0 0 .978-.556c.72-.456 1.656-1.121 2.795-1.983 2.285-1.727 5.474-4.304 9.558-7.722l-1.692-2.022c-4.074 3.41-7.223 5.953-9.455 7.64-1.119.845-1.987 1.46-2.616 1.858a7.26 7.26 0 0 1-.704.404c-.215.103-.145.031.069.031v2.637zm12.425-10.877l4.342 7.171 2.255-1.366-4.342-7.171-2.255 1.366zm25.448.501l-.289 1.286h.001l.288-1.287zm10.614 7.61l1.123-.691-.001-.002-1.122.692zm2.171 13.136l1.286.288.001-.004-1.287-.285zm-7.544 10.943l-.722-1.103-.005.004.727 1.1zm-12.851 2.39l.292-1.286-.004-.001-.288 1.287zm-10.614-7.61l-1.123.691.001.002 1.122-.693zM29.145 26.18l1.287.285h0l-1.287-.284zm7.544-10.965l.72 1.104.003-.002-.723-1.102zm10.899 5.11l-.294 1.285.006.001.288-1.286zm-7.127 1.36l.73 1.098.004-.003-.734-1.095zm-4.21 6.184l-1.287-.285-.001.003 1.288.281zm1.184 7.368l1.129-.68-.004-.007-1.125.687zm5.877 4.276l.294-1.285-.006-.001-.288 1.286zm7.149-1.36l.729 1.099.004-.003-.733-1.096zm4.211-6.184l1.286.291.001-.005-1.287-.286zm-1.184-7.39l1.131-.678-.007-.011-1.124.689zm-4.235-10.446c4.224.944 7.464 3.263 9.78 7.016l2.244-1.385c-2.683-4.347-6.52-7.102-11.448-8.204l-.575 2.573zm9.779 7.014c1.634 2.655 2.436 5.429 2.436 8.344h2.637c0-3.43-.952-6.679-2.827-9.726l-2.245 1.382zm2.436 8.344c0 1.244-.142 2.515-.429 3.816l2.575.569c.327-1.477.492-2.939.492-4.385h-2.637zm-.428 3.812c-.979 4.363-3.294 7.716-6.98 10.128l1.444 2.206c4.267-2.793 6.982-6.734 8.108-11.758l-2.573-.577zm-6.985 10.132c-2.653 1.755-5.414 2.61-8.308 2.61v2.637c3.451 0 6.713-1.031 9.762-3.048l-1.455-2.199zm-8.308 2.61a15.86 15.86 0 0 1-3.524-.406l-.584 2.571c1.378.313 2.748.471 4.108.471v-2.637zm-3.528-.407c-4.224-.945-7.464-3.263-9.78-7.016l-2.244 1.385c2.683 4.347 6.52 7.101 11.448 8.204l.575-2.573zm-9.779-7.014c-1.634-2.655-2.436-5.429-2.436-8.344h-2.637c0 3.43.952 6.679 2.827 9.726l2.246-1.382zm-2.436-8.344c0-1.244.142-2.516.429-3.816l-2.575-.569c-.327 1.477-.492 2.939-.492 4.386h2.637zm.43-3.817c.965-4.375 3.278-7.733 6.977-10.144l-1.44-2.209c-4.284 2.794-7 6.745-8.111 11.786l2.575.568zm6.98-10.147c2.653-1.741 5.416-2.591 8.312-2.591v-2.637c-3.449 0-6.71 1.022-9.759 3.023l1.447 2.204zm8.312-2.591a16.06 16.06 0 0 1 3.527.406l.578-2.572a18.69 18.69 0 0 0-4.105-.471v2.637zm2.159 5.313c-.794-.182-1.587-.274-2.378-.274v2.637c.584 0 1.179.068 1.789.208l.589-2.57zm-2.378-.274c-2.052 0-3.986.624-5.777 1.824l1.467 2.191c1.396-.935 2.825-1.378 4.31-1.378v-2.637zm-5.773 1.821c-2.511 1.669-4.111 4.024-4.768 6.998l2.575.569c.512-2.319 1.72-4.086 3.653-5.371l-1.459-2.196zm-4.769 7.001c-.194.889-.293 1.765-.293 2.628h2.637a9.68 9.68 0 0 1 .233-2.065l-2.576-.562zm-.293 2.628c0 2.023.556 3.933 1.641 5.709l2.25-1.375c-.844-1.382-1.254-2.82-1.254-4.335h-2.637zm1.637 5.702c1.556 2.582 3.815 4.232 6.718 4.882l.577-2.573c-2.184-.49-3.843-1.69-5.036-3.67l-2.258 1.361zm6.712 4.881c.794.182 1.587.275 2.378.275v-2.637a7.99 7.99 0 0 1-1.789-.208l-.589 2.57zm2.378.275c2.052 0 3.991-.624 5.795-1.821l-1.458-2.197c-1.413.938-2.851 1.381-4.337 1.381v2.637zm5.799-1.823c2.495-1.669 4.091-4.021 4.763-6.989l-2.572-.582c-.527 2.325-1.737 4.095-3.658 5.38l1.466 2.192zm4.764-6.994c.195-.876.295-1.739.295-2.589h-2.637c0 .642-.076 1.313-.232 2.017l2.574.572zm.295-2.589c0-2.035-.554-3.964-1.635-5.766l-2.261 1.357c.849 1.414 1.26 2.877 1.26 4.409h2.637zm-1.642-5.777c-1.571-2.563-3.836-4.202-6.735-4.852l-.577 2.573c2.188.49 3.857 1.688 5.063 3.657l2.248-1.378zm20.104-11.987l1.312.125.148-1.55-1.553.11.093 1.315zm-.768 28.926H72.63v1.694l1.642-.416-.324-1.278zm13.816-2.303h1.318v-1.318h-1.318v1.318zm0 8.18v1.318h1.318v-1.318h-1.318zm-15.351 2.829v1.318h.164l.158-.04-.322-1.278zm-.263 0l-.2 1.303.099.015h.101v-1.318zm-5.614-36.601l-.224-1.299-1.047.181-.046 1.061 1.317.057zm6.867-1.156c-.517 5.423-.773 12.296-.773 20.608h2.637c0-8.267.255-15.049.762-20.357l-2.625-.25zm-.773 20.608v8.443h2.637v-8.443H72.63zm1.642 9.721c6.077-1.541 10.013-2.262 11.957-2.262v-2.637c-2.326 0-6.577.814-12.605 2.343l.648 2.556zm11.957-2.262h1.535v-2.637h-1.535v2.637zm.217-1.318v8.18h2.637v-8.18h-2.637zm1.318 6.862h-1.031v2.637h1.031v-2.637zm-1.031 0c-1.172 0-2.993.26-5.382.732-2.418.478-5.507 1.191-9.261 2.137l.644 2.557c3.732-.94 6.772-1.642 9.128-2.107 2.385-.471 3.981-.682 4.871-.682v-2.637zm-14.32 2.829h-.263v2.637h.263v-2.637zm-.063.015c-1.822-.28-3.026-.942-3.789-1.867-.77-.932-1.233-2.301-1.233-4.265h-2.637c0 2.364.56 4.398 1.837 5.944 1.283 1.554 3.15 2.445 5.422 2.794l.4-2.606zm-5.022-6.131v-4.605h-2.637v4.605h2.637zm0-4.605a565.04 565.04 0 0 1 .525-24.504l-2.634-.114a567.82 567.82 0 0 0-.528 24.619h2.637zm-.568-23.262c2.933-.506 5.615-.843 8.049-1.015l-.186-2.63c-2.537.179-5.308.529-8.311 1.047l.448 2.598zm51.026 13.811l-1.28.317.256 1.03 1.061-.03-.037-1.318zm2.346-.066l1.273-.343-.27-1.004-1.039.029.036 1.318zm1.886 8.465l.209 1.302 1.342-.215-.256-1.335-1.295.248zm-2.434.285l-.107-1.314-1.476.121.291 1.452 1.292-.258zm1.535 7.676h1.319v-.131l-.026-.128-1.293.259zm0 .767l.206 1.302 1.113-.176v-1.126h-1.319zm-8.18 1.294l-1.301.211.21 1.296 1.297-.205-.206-1.302zm-1.535-9.474l1.302-.211-.18-1.107h-1.122v1.318zm-11.008.504l-.081-1.316-.924.057-.261.888 1.266.371zm-3.334 9.978l-.296 1.285 1.132.261.401-1.09-1.237-.456zm-7.675-2.303l-1.246-.429-.273.792.602.584.918-.947zm5.373-15.592l1.246.429.003-.009-1.249-.421zm8.706-19.978l-.878-.984-.074.066-.062.076 1.014.842zm3.333 10.768V19.05h-.906l-.325.846 1.231.472zm-3.333 8.684l-1.231-.472-.687 1.791h1.918v-1.318zm.263 0v1.318h.034l.034-.002-.068-1.317zm5.877-.241v1.318h1.318v-1.318h-1.318zm0-.263h1.318v-.154l-.035-.15-1.283.303zm-2.566-8.18l1.239-.451-.316-.867h-.923v1.318zm-.504-10.721h1.272V7.01h-1.272v2.637zm1.272 0c.388 0 .92.181 1.609.856.696.68 1.454 1.771 2.253 3.35 1.595 3.152 3.214 7.967 4.836 14.508l2.56-.635c-1.638-6.602-3.313-11.645-5.043-15.064-.865-1.707-1.777-3.081-2.762-4.044-.989-.968-2.146-1.608-3.453-1.608v2.637zm10.015 19.715l2.346-.066-.073-2.636-2.347.066.074 2.636zm1.036-1.041c.603 2.239 1.225 5.026 1.865 8.37l2.589-.495c-.647-3.382-1.282-6.237-1.908-8.56l-2.546.685zm2.951 6.821c-.691.111-1.469.202-2.333.273l.215 2.628a33.46 33.46 0 0 0 2.535-.297l-.417-2.604zm-3.518 1.845l1.535 7.676 2.585-.517-1.535-7.675-2.585.517zm1.509 7.417v.767h2.637v-.767h-2.637zm1.112-.535l-8.18 1.294.412 2.604 8.18-1.294-.412-2.604zm-6.672 2.385l-1.535-9.474-2.603.422 1.535 9.474 2.603-.422zm-2.837-10.581c-1.918 0-5.628.171-11.089.507l.161 2.632c5.474-.337 9.104-.502 10.928-.502v-2.637zM99.13 37.125c-.882 3.007-1.983 6.305-3.305 9.893l2.474.912c1.339-3.633 2.46-6.988 3.362-10.063l-2.531-.742zm-1.772 9.065c-2.307-.531-4.073-.983-5.312-1.354-.621-.186-1.087-.346-1.412-.478-.386-.157-.413-.213-.329-.132l-1.835 1.893c.325.315.799.53 1.173.682.435.177.989.363 1.647.561 1.32.396 3.15.862 5.478 1.398l.592-2.569zm-6.725-.589l5.373-15.592-2.493-.859-5.373 15.592 2.493.859zm5.376-15.601c1.785-5.303 3.392-9.589 4.822-12.871 1.443-3.311 2.664-5.499 3.649-6.685l-2.028-1.685c-1.238 1.49-2.579 3.969-4.038 7.317-1.472 3.378-3.107 7.743-4.904 13.083l2.499.841zm8.334-19.415c.751-.669 1.472-.937 2.193-.937V7.01c-1.472 0-2.798.58-3.948 1.607l1.755 1.967zm1.225 9.312l-3.333 8.684 2.461.945 3.334-8.684-2.462-.945zm-2.102 10.475h.263v-2.637h-.263v2.637zm.331-.002l5.809-.239v-2.637c-.86 0-2.858.083-5.945.243l.136 2.633zm7.127-1.558v-.263h-2.636v.263h2.636zm-.035-.567c-.528-2.234-1.402-5.014-2.61-8.328l-2.477.903c1.19 3.265 2.026 5.938 2.521 8.032l2.566-.607zm-3.849-9.195h-.241v2.637h.241V19.05zm33.97 3.862l-1.213.518.218.508.514.201.481-1.228zm1.272 2.566l-1.254.406.889 2.745 1.493-2.469-1.128-.682zm8.202-12.807l-.919-.945-.091.088-.073.104 1.083.753zm4.605-2.303l.264-1.292-.131-.027h-.133v1.318zm5.373 34.035l.234 1.297 1.223-.221-.148-1.233-1.309.157zm-8.202 1.031l-1.284.3.239 1.018h1.045v-1.318zm-.241-1.031l-1.318.027.002.138.032.135 1.284-.3zm-.263-18.662h1.318v-4.756l-2.449 4.078 1.131.679zm-5.373 8.947l.811 1.039.193-.151.126-.21-1.13-.679zm-11.777-7.171l1.239-.451-.062-.169-.105-.147-1.072.767zm-1.272-2.303h1.319v-1.567l-1.545.269.226 1.299zm-1.272 19.956v1.318h1.258l.059-1.256-1.317-.062zm-8.201-.504l-1.317-.075-.073 1.298 1.297.092.093-1.315zm2.061-28.662l-1.296-.242-.01.053-.005.054 1.311.135zm5.614-4.559c.651 0 1.762.566 3.316 2.663 1.488 2.009 3.14 5.096 4.945 9.322l2.425-1.036c-1.835-4.297-3.582-7.603-5.252-9.856-1.604-2.165-3.409-3.73-5.434-3.73v2.637zm8.993 12.695c-.247-.097-.337-.243-.295-.189.023.029.079.114.165.287.17.343.38.881.629 1.646l2.508-.813c-.264-.813-.521-1.492-.775-2.005-.126-.255-.271-.507-.438-.725-.148-.192-.417-.495-.833-.657l-.961 2.455zm2.881 2.02c3.12-5.161 5.838-9.405 8.156-12.736l-2.165-1.506c-2.361 3.394-5.11 7.689-8.247 12.878l2.256 1.364zm7.993-12.544c1.449-1.409 2.671-1.929 3.686-1.929V9.05c-1.968 0-3.816 1.014-5.524 2.676l1.838 1.89zm3.421-1.956c1.277.261 2.111.802 2.649 1.55.554.771.903 1.914.903 3.561h2.637c0-1.993-.42-3.738-1.4-5.101-.997-1.386-2.466-2.227-4.26-2.594l-.529 2.583zm3.552 5.112v11.513h2.637V16.772h-2.637zm0 11.513c0 6.506.257 11.935.777 16.276l2.618-.314c-.503-4.198-.758-9.514-.758-15.962h-2.637zm1.851 14.821c-3.808.688-6.346 1.01-7.704 1.01v2.637c1.624 0 4.379-.366 8.173-1.052l-.469-2.595zm-7.704 1.01h-.263v2.637h.263v-2.637zm1.021 1.018l-.242-1.031-2.567.601.241 1.031 2.568-.601zm-.207-.757l-.263-18.635h-2.637l.264 18.69 2.636-.054zm-2.712-19.314l-5.373 8.947 2.261 1.357 5.373-8.947-2.261-1.357zm-5.054 8.587c-1.437 1.122-2.518 1.519-3.289 1.519v2.637c1.626 0 3.279-.802 4.912-2.078l-1.623-2.078zm-3.289 1.519c-.965 0-2.003-.474-3.121-1.781-1.133-1.324-2.252-3.4-3.316-6.321l-2.477.902c1.114 3.058 2.364 5.467 3.789 7.133 1.44 1.683 3.151 2.704 5.125 2.704v-2.637zm-6.604-8.418c-.411-.574-.695-1.015-.872-1.334-.088-.16-.136-.266-.159-.327-.031-.081.006-.02.006.126h-2.637c0 .322.09.61.165.809.083.218.194.444.317.668.248.448.599.983 1.036 1.594l2.144-1.535zm-2.57-2.834c-.336.058-.76.204-1.104.562-.365.381-.492.85-.492 1.263h2.636a.84.84 0 0 1-.24.561c-.087.091-.175.144-.24.174a.46.46 0 0 1-.108.037l-.452-2.598zm-1.596 1.825c0 2.095-.254 8.532-.766 19.368l2.633.125.769-19.492h-2.636zm.55 18.112h-.263v2.637h.263v-2.637zm-.263 0c-.48 0-3.056-.162-7.845-.501l-.186 2.63 8.031.508v-2.637zm-6.622.889l2.056-28.603-2.622-.27c-.647 6.289-1.335 15.868-2.067 28.722l2.633.15zm2.041-28.496c.339-1.819.915-3.012 1.609-3.739.658-.689 1.519-1.062 2.709-1.062V8.809c-1.822 0-3.402.607-4.616 1.877-1.177 1.232-1.902 2.978-2.294 5.077l2.592.483zm54.187 33.421l-1.315.096.096 1.311 1.311-.092-.092-1.315zm.329-37.588l.036-1.318-1.19-.033-.154 1.181 1.308.17zm8.794.395l1.306.179.192-1.402-1.412-.092-.086 1.316zm-1.053 13.619h-1.318v1.285l1.284.033.034-1.318zm14.189-1.009l.213 1.301 1.105-.181v-1.12h-1.318zm.329-14.649l-.177-1.306-1.098.148-.043 1.108 1.318.05zm8.224-.307l1.317.058.057-1.305-1.304-.07-.07 1.316zm-.505 13.772l-1.318-.033-.038 1.535 1.523-.195-.167-1.308zm2.917-.373l1.316-.071-.076-1.417-1.407.18.167 1.308zm.438 8.158l.259 1.293 1.119-.224-.061-1.14-1.317.071zm-3.399.68l-.258-1.293-1.06.212v1.081h1.318zm.702 12.412l.214 1.301 1.212-.199-.113-1.222-1.313.121zm-8.202 1.294l-1.3.218.215 1.281 1.284-.196-.199-1.303zm-.504-12.544l1.318.032.039-1.611-1.587.281.23 1.298zm-14.32 1.272l-.008-1.318-1.226.007-.082 1.223 1.316.088zm.701 13.728l.233 1.298 1.211-.217-.133-1.223-1.311.143zm-7.325 1.044c-.495-6.772-.742-13.033-.742-18.786h-2.637c0 5.827.25 12.153.749 18.978l2.63-.192zm-.742-18.786c0-6.916.356-13.093 1.063-18.536l-2.615-.34c-.725 5.58-1.085 11.874-1.085 18.876h2.637zm-.281-17.388c3.159.087 6.074.218 8.745.393l.172-2.631c-2.71-.177-5.658-.309-8.844-.397l-.073 2.636zm7.525-1.102c-.707 5.164-1.065 9.512-1.065 13.03h2.636c0-3.354.344-7.573 1.041-12.672l-2.612-.357zm-1.065 13.03v.022.021.021.021.021.021.021.021.021.021.021.021.021.021.021.021.021.021.021.021.021.021.021.021.021.021.021.021.021.021.02.021.02.021.02.02l2.636.012v-.02-.02-.021-.02-.021-.021-.021-.021-.021-.021-.021-.021-.021-.021-.021-.021-.021-.021-.021-.021-.021-.021-.021-.021-.021-.021-.021-.021-.021-.021-.021-.021-.021-.021-.021-.022l-2.636-.012zm1.284 2.085l1.876.022v-2.637c-.648 0-1.251-.007-1.808-.021l-.068 2.636zm1.876.022c4.11 0 8.297-.35 12.56-1.048l-.426-2.602c-4.129.676-8.174 1.013-12.134 1.013v2.637zm13.665-2.349c0-4.013.109-8.878.328-14.599l-2.635-.101c-.219 5.742-.33 10.642-.33 14.7h2.637zm-.813-13.343c1.779-.24 3.65-.361 5.613-.361V8.743c-2.071 0-4.06.128-5.966.385l.353 2.613zm5.613-.361a44.23 44.23 0 0 1 2.364.064l.141-2.633a46.84 46.84 0 0 0-2.505-.068v2.637zm1.117-1.311l-.505 13.797 2.636.065.504-13.747-2.635-.116zm.98 15.138l2.917-.373-.334-2.615-2.917.373.334 2.615zm1.433-1.61l.439 8.158 2.633-.142-.439-8.158-2.633.142zm1.497 6.794l-3.399.68.517 2.585 3.399-.68-.517-2.585zm-4.459 1.973v.68h2.637v-.68h-2.637zm0 .68c0 2.81.238 6.768.707 11.854l2.626-.242c-.467-5.061-.696-8.924-.696-11.611h-2.637zm1.806 10.432l-8.186 1.291.397 2.606 8.217-1.296-.428-2.602zm-6.688 2.377c-.347-2.072-.53-5.014-.53-8.861h-2.636c0 3.902.183 7.012.566 9.297l2.6-.436zm-.53-8.861l.044-3.433-2.636-.064-.044 3.497h2.636zm-1.504-4.763c-4.543.805-9.242 1.223-14.098 1.252l.015 2.637c4.998-.03 9.846-.46 14.543-1.292l-.46-2.596zm-15.406 2.482a32.68 32.68 0 0 0-.069 2.171h2.637c0-.705.021-1.37.063-1.996l-2.631-.175zm-.069 2.171c0 3.136.261 7.069.776 11.788l2.621-.286c-.509-4.668-.76-8.498-.76-11.502h-2.637zm1.854 10.347c-3.228.579-6.06.952-8.5 1.123l.184 2.63c2.559-.18 5.488-.567 8.781-1.158l-.465-2.595zm52.667-19.185l-1.28.317.256 1.03 1.061-.03-.037-1.318zm2.346-.066l1.273-.343-.27-1.004-1.04.029.037 1.318zm1.886 8.465l.209 1.302 1.342-.215-.256-1.335-1.295.248zm-2.434.285l-.108-1.314-1.475.121.29 1.452 1.293-.258zm1.535 7.676h1.319v-.131l-.026-.128-1.293.259zm0 .767l.206 1.302 1.113-.176v-1.126h-1.319zm-8.18 1.294l-1.301.211.21 1.296 1.297-.205-.206-1.302zm-1.535-9.474l1.302-.211-.18-1.107h-1.122v1.318zm-11.009.504l-.08-1.316-.924.057-.261.888 1.265.371zm-3.333 9.978l-.296 1.285 1.132.261.401-1.09-1.237-.456zm-7.675-2.303l-1.247-.429-.273.792.602.584.918-.947zm5.372-15.592l1.247.429.003-.009-1.25-.421zm8.707-19.978l-.878-.984-.074.066-.063.076 1.015.842zm3.333 10.768V19.05h-.906l-.325.846 1.231.472zm-3.333 8.684l-1.231-.472-.688 1.791h1.919v-1.318zm.263 0v1.318h.034l.034-.002-.068-1.317zm5.877-.241v1.318h1.318v-1.318H234.3zm0-.263h1.318v-.154l-.035-.15-1.283.303zm-2.566-8.18l1.239-.451-.316-.867h-.923v1.318zm-.504-10.721h1.272V7.01h-1.272v2.637zm1.272 0c.388 0 .92.181 1.609.856.696.68 1.454 1.771 2.253 3.35 1.595 3.152 3.214 7.967 4.836 14.508l2.559-.635c-1.637-6.602-3.312-11.645-5.043-15.064-.864-1.707-1.776-3.081-2.761-4.044-.989-.968-2.146-1.608-3.453-1.608v2.637zm10.015 19.715l2.346-.066-.074-2.636-2.346.066.074 2.636zm1.036-1.041c.603 2.239 1.225 5.026 1.865 8.37l2.589-.495c-.647-3.382-1.282-6.237-1.908-8.56l-2.546.685zm2.951 6.821c-.692.111-1.469.202-2.334.273l.216 2.628a33.46 33.46 0 0 0 2.535-.297l-.417-2.604zm-3.519 1.845l1.536 7.676 2.585-.517-1.535-7.675-2.586.517zm1.51 7.417v.767h2.637v-.767h-2.637zm1.112-.535l-8.18 1.294.412 2.604 8.18-1.294-.412-2.604zm-6.672 2.385L237.4 36.78l-2.603.422 1.535 9.474 2.603-.422zm-2.837-10.581c-1.918 0-5.628.171-11.089.507l.161 2.632c5.474-.337 9.104-.502 10.928-.502v-2.637zm-12.274 1.452c-.882 3.007-1.983 6.305-3.305 9.893l2.474.912c1.339-3.633 2.46-6.988 3.361-10.063l-2.53-.742zm-1.772 9.065c-2.307-.531-4.073-.983-5.312-1.354-.621-.186-1.087-.346-1.412-.478-.386-.157-.413-.213-.33-.132l-1.835 1.893c.325.315.798.53 1.172.682.435.177.989.363 1.647.561 1.32.396 3.151.862 5.478 1.398l.592-2.569zm-6.725-.589l5.373-15.592-2.493-.859-5.373 15.592 2.493.859zm5.376-15.601c1.784-5.303 3.392-9.589 4.822-12.871 1.443-3.311 2.664-5.499 3.649-6.685l-2.029-1.685c-1.237 1.49-2.578 3.969-4.037 7.317-1.472 3.378-3.107 7.743-4.904 13.083l2.499.841zm8.334-19.415c.751-.669 1.472-.937 2.193-.937V7.01c-1.472 0-2.798.58-3.948 1.607l1.755 1.967zm1.225 9.312l-3.333 8.684 2.461.945 3.334-8.684-2.462-.945zm-2.102 10.475h.263v-2.637h-.263v2.637zm.331-.002l5.809-.239v-2.637c-.86 0-2.858.083-5.946.243l.137 2.633zm7.127-1.558v-.263h-2.636v.263h2.636zm-.035-.567c-.528-2.234-1.402-5.014-2.61-8.328l-2.477.903c1.19 3.265 2.026 5.938 2.521 8.032l2.566-.607zm-3.849-9.195h-.241v2.637h.241V19.05zm49.891 3.862l1.202-.541-.009-.019-.009-.019-1.184.58zm-7.083 22.215l.615 1.166h.001l-.616-1.165zm-25.154-.197h-1.318v.066l.006.065 1.312-.131zm-.263-10.921l-1.318.033v.003l1.318-.036zm-1.272-17.741h-1.319v.084l.011.083 1.308-.167zm8.969 2.566l-.136-1.311-1.271.132.092 1.275 1.315-.095zm1.075 22.807l-1.319.015.017 1.452 1.444-.156-.142-1.311zm7.368-22.566l.413-1.252-.049-.016-.051-.012-.313 1.281zm-5.899-.504v-1.318h-.068l-.068.007.136 1.311zm.768-6.883h.767V9.05h-.767v2.637zm.767 0c4.67 0 8.58 1.003 11.79 2.945s5.797 4.87 7.75 8.86l2.368-1.159c-2.141-4.373-5.051-7.716-8.753-9.956s-8.102-3.326-13.155-3.326v2.637zm19.522 11.767c.772 1.714 1.177 3.745 1.177 6.125h2.637c0-2.678-.457-5.092-1.41-7.208l-2.404 1.083zm1.177 6.125v.241h2.637v-.241H281.6zm0 .241c0 3.458-.665 6.318-1.932 8.633-1.261 2.305-3.158 4.142-5.743 5.509l1.233 2.331c3-1.587 5.292-3.777 6.823-6.574 1.525-2.788 2.256-6.105 2.256-9.898H281.6zm-7.674 14.141c-5.32 2.807-12.274 4.256-20.942 4.256v2.637c8.936 0 16.353-1.49 22.173-4.56l-1.231-2.332zm-20.942 4.256c-.673 0-1.099-.223-1.428-.645-.381-.488-.714-1.354-.856-2.774l-2.624.262c.165 1.651.584 3.087 1.402 4.134.87 1.114 2.089 1.658 3.506 1.658v-2.637zm-2.278-3.287c0-.871-.088-4.538-.263-10.957l-2.636.072.263 10.885h2.636zm-.263-10.954c-.162-6.47-.589-12.429-1.282-17.875l-2.616.333c.681 5.343 1.102 11.212 1.262 17.608l2.636-.066zm-1.272-17.708c0-.741.188-1.334.532-1.829.352-.507.92-.988 1.791-1.407 1.778-.854 4.609-1.345 8.64-1.345V9.05c-4.158 0-7.466.492-9.782 1.605-1.175.565-2.143 1.312-2.815 2.28-.679.979-1.003 2.108-1.003 3.332h2.637zm6.336 2.661c.642 8.902.999 16.476 1.071 22.728l2.637-.031c-.074-6.322-.433-13.952-1.078-22.887l-2.63.19zm2.532 24.023c5.708-.618 10.179-1.987 13.252-4.239 3.145-2.305 4.744-5.479 4.744-9.397h-2.636c0 3.085-1.205 5.466-3.666 7.27-2.534 1.857-6.473 3.148-11.978 3.744l.284 2.621zm17.996-13.635c0-2.699-.907-5.061-2.712-7.018-1.779-1.927-4.368-3.395-7.645-4.475l-.825 2.504c3.023.996 5.16 2.273 6.532 3.759 1.345 1.457 2.014 3.177 2.014 5.23h2.636zm-10.457-11.522c-1.485-.363-3.045-.542-4.677-.542v2.637c1.439 0 2.787.157 4.051.467l.626-2.561zm-4.677-.542h-1.535v2.637h1.535v-2.637zm-1.671.007l-2.544.263.272 2.623 2.544-.263-.272-2.623zm28.141-4.062v-1.318h-.791l-.372.697 1.163.621zm7.938 1.272l1.291.269.269-1.292-1.291-.268-.269 1.291zm-.526 29.935l.071 1.316 1.343-.072-.099-1.341-1.315.097zm-7.676.263l-1.31.14.126 1.178h1.184v-1.318zm-1.03-20.658l-1.318-.039v.01.01l1.318.02zm10.57-21.908l-.938.926.938-.926zm-8.026 8.136l-.945.92.006.006.939-.926zm0-8.136l-.939-.926-.006.006.945.92zm-1.25 12.415c1.051 0 3.555.389 7.67 1.244l.537-2.581c-4.043-.841-6.832-1.299-8.207-1.299v2.637zm6.648-.316c-.801 3.838-1.19 8.814-1.19 14.897h2.636c0-5.994.386-10.769 1.135-14.358l-2.581-.539zm-1.19 14.897c0 4.499.213 9.635.639 15.404l2.63-.194c-.423-5.722-.633-10.791-.633-15.21h-2.636zm1.883 13.991c-3.251.175-5.783.261-7.605.261v2.637c1.892 0 4.478-.089 7.747-.265l-.142-2.633zm-6.294 1.439c-.698-6.515-1.045-12.344-1.045-17.491h-2.637c0 5.262.355 11.187 1.061 17.772l2.621-.281zm-1.045-17.491l.022-3.007-2.636-.039-.023 3.046h2.637zm.021-2.987c.088-2.942.238-5.28.447-7.026.217-1.811.479-2.804.692-3.203l-2.325-1.242c-.474.887-.771 2.34-.985 4.132-.223 1.857-.376 4.283-.464 7.261l2.635.078zm5.24-22.317c1.207 0 2.208.418 3.075 1.296l1.876-1.852c-1.355-1.374-3.03-2.081-4.951-2.081V1.73zm3.075 1.296c.865.877 1.286 1.903 1.286 3.153h2.637c0-1.937-.69-3.631-2.047-5.005l-1.876 1.852zm1.286 3.153a4.25 4.25 0 0 1-1.286 3.131l1.876 1.852c1.354-1.372 2.047-3.057 2.047-4.983h-2.637zm-1.286 3.131c-.867.878-1.868 1.296-3.075 1.296v2.637c1.921 0 3.596-.707 4.951-2.081l-1.876-1.852zm-3.075 1.296c-1.208 0-2.209-.418-3.075-1.296l-1.877 1.852a6.75 6.75 0 0 0 4.952 2.081v-2.637zm-3.069-1.29a4.29 4.29 0 0 1-1.271-3.137h-2.636c0 1.921.681 3.604 2.018 4.977l1.889-1.84zm-1.271-3.137c0-1.255.418-2.283 1.271-3.159l-1.889-1.84c-1.34 1.376-2.018 3.067-2.018 4.999h2.636zm1.265-3.153c.866-.878 1.867-1.296 3.075-1.296V-.906a6.75 6.75 0 0 0-4.952 2.081l1.877 1.852zm34.895 25.017l-1.279.317.255 1.03 1.061-.03-.037-1.318zm2.347-.066l1.273-.343-.271-1.004-1.039.029.037 1.318zm1.886 8.465l.208 1.302 1.342-.215-.255-1.335-1.295.248zm-2.435.285l-.107-1.314-1.476.121.291 1.452 1.292-.258zm1.536 7.676h1.318v-.131l-.026-.128-1.292.259zm0 .767l.206 1.302 1.112-.176v-1.126h-1.318zm-8.18 1.294l-1.302.211.21 1.296 1.298-.205-.206-1.302zm-1.535-9.474l1.301-.211-.18-1.107h-1.121v1.318zm-11.009.504l-.081-1.316-.924.057-.26.888 1.265.371zm-3.334 9.978l-.295 1.285 1.131.261.401-1.09-1.237-.456zm-7.675-2.303l-1.247-.429-.273.792.602.584.918-.947zm5.373-15.592l1.246.429.003-.009-1.249-.421zm8.706-19.978l-.878-.984-.073.066-.063.076 1.014.842zm3.333 10.768V19.05h-.906l-.324.846 1.23.472zm-3.333 8.684l-1.231-.472-.687 1.791h1.918v-1.318zm.263 0v1.318h.034l.034-.002-.068-1.317zm5.877-.241v1.318h1.319v-1.318h-1.319zm0-.263h1.319v-.154l-.036-.15-1.283.303zm-2.565-8.18l1.238-.451-.316-.867h-.922v1.318zm-.505-10.721h1.272V7.01h-1.272v2.637zm1.272 0c.389 0 .92.181 1.61.856.695.68 1.453 1.771 2.252 3.35 1.596 3.152 3.214 7.967 4.837 14.508l2.559-.635c-1.638-6.602-3.313-11.645-5.043-15.064-.864-1.707-1.777-3.081-2.762-4.044-.989-.968-2.146-1.608-3.453-1.608v2.637zm10.015 19.715l2.347-.066-.074-2.636-2.347.066.074 2.636zm1.037-1.041c.602 2.239 1.224 5.026 1.864 8.37l2.59-.495c-.647-3.382-1.283-6.237-1.908-8.56l-2.546.685zm2.95 6.821a30.7 30.7 0 0 1-2.333.273l.215 2.628a33.4 33.4 0 0 0 2.535-.297l-.417-2.604zm-3.518 1.845l1.535 7.676 2.585-.517-1.535-7.675-2.585.517zm1.509 7.417v.767h2.637v-.767h-2.637zm1.113-.535l-8.18 1.294.412 2.604 8.18-1.294-.412-2.604zm-6.673 2.385l-1.535-9.474-2.603.422 1.535 9.474 2.603-.422zm-2.836-10.581c-1.919 0-5.628.171-11.09.507l.162 2.632c5.474-.337 9.103-.502 10.928-.502v-2.637zm-12.274 1.452c-.882 3.007-1.983 6.305-3.306 9.893l2.474.912c1.339-3.633 2.46-6.988 3.362-10.063l-2.53-.742zm-1.773 9.065c-2.307-.531-4.073-.983-5.312-1.354-.621-.186-1.086-.346-1.412-.478-.386-.157-.413-.213-.329-.132l-1.836 1.893c.325.315.799.53 1.173.682.435.177.989.363 1.647.561 1.32.396 3.15.862 5.478 1.398l.591-2.569zm-6.725-.589l5.373-15.592-2.493-.859-5.373 15.592 2.493.859zm5.376-15.601c1.785-5.303 3.392-9.589 4.822-12.871 1.443-3.311 2.664-5.499 3.649-6.685l-2.028-1.685c-1.237 1.49-2.579 3.969-4.038 7.317-1.472 3.378-3.106 7.743-4.904 13.083l2.499.841zm8.335-19.415c.75-.669 1.471-.937 2.192-.937V7.01c-1.472 0-2.797.58-3.948 1.607l1.756 1.967zm1.225 9.312l-3.334 8.684 2.462.945 3.333-8.684-2.461-.945zm-2.103 10.475h.263v-2.637h-.263v2.637zm.331-.002l5.809-.239v-2.637c-.86 0-2.857.083-5.945.243l.136 2.633zm7.128-1.558v-.263h-2.637v.263h2.637zm-.036-.567c-.528-2.234-1.402-5.014-2.61-8.328l-2.477.903c1.19 3.265 2.026 5.938 2.521 8.032l2.566-.607zm-3.848-9.195h-.242v2.637h.242V19.05zm17.96 30.617l-1.315.096.096 1.311 1.311-.092-.092-1.315zm.329-37.588l.037-1.318-1.191-.033-.153 1.181 1.307.17zm8.794.395l1.306.179.192-1.402-1.412-.092-.086 1.316zm-1.053 13.619h-1.318v1.285l1.285.033.033-1.318zm14.189-1.009l.213 1.301 1.105-.181v-1.12h-1.318zm.329-14.649l-.176-1.306-1.099.148-.042 1.108 1.317.05zm8.224-.307l1.317.058.057-1.305-1.304-.07-.07 1.316zm-.505 13.772l-1.318-.033-.038 1.535 1.524-.195-.168-1.308zm2.917-.373l1.317-.071-.077-1.417-1.407.18.167 1.308zm.439 8.158l.258 1.293 1.119-.224-.061-1.14-1.316.071zm-3.399.68l-.259-1.293-1.06.212v1.081h1.319zm.701 12.412l.214 1.301 1.212-.199-.113-1.222-1.313.121zm-8.201 1.294l-1.301.218.215 1.281 1.284-.196-.198-1.303zm-.505-12.544l1.318.032.039-1.611-1.587.281.23 1.298zm-14.32 1.272l-.008-1.318-1.226.007-.082 1.223 1.316.088zm.702 13.728l.232 1.298 1.212-.217-.134-1.223-1.31.143zm-7.326 1.044c-.495-6.772-.742-13.033-.742-18.786h-2.637c0 5.827.25 12.153.749 18.978l2.63-.192zm-.742-18.786c0-6.916.356-13.093 1.063-18.536l-2.614-.34c-.725 5.58-1.086 11.874-1.086 18.876h2.637zm-.28-17.388a234.56 234.56 0 0 1 8.744.393l.172-2.631a237.28 237.28 0 0 0-8.843-.397l-.073 2.636zm7.524-1.102c-.706 5.164-1.065 9.512-1.065 13.03h2.637c0-3.354.343-7.573 1.04-12.672l-2.612-.357zm-1.065 13.03v.022.021.021.021.021.021.021.021.021.021.021.021.021.021.021.021.021.021.021.021.021.021.021.021.021.021.021.021.021.021.02.021.02.021.02.02l2.637.012v-.02-.02-.021-.02-.021-.021-.021-.021-.021-.021-.021-.021-.021-.021-.021-.021-.021-.021-.021-.021-.021-.021-.021-.021-.021-.021-.021-.021-.021-.021-.021-.021-.021-.021-.021-.022l-2.637-.012zm1.285 2.085l1.876.022v-2.637c-.649 0-1.251-.007-1.809-.021l-.067 2.636zm1.876.022c4.11 0 8.297-.35 12.559-1.048l-.426-2.602c-4.129.676-8.173 1.013-12.133 1.013v2.637zm13.664-2.349c0-4.013.11-8.878.328-14.599l-2.634-.101c-.22 5.742-.33 10.642-.33 14.7h2.636zm-.813-13.343c1.779-.24 3.65-.361 5.614-.361V8.743c-2.072 0-4.061.128-5.966.385l.352 2.613zm5.614-.361c.78 0 1.568.021 2.363.064l.141-2.633c-.841-.045-1.676-.068-2.504-.068v2.637zm1.117-1.311l-.506 13.797 2.636.065.504-13.747-2.634-.116zm.98 15.138l2.916-.373-.334-2.615-2.917.373.335 2.615zm1.433-1.61l.438 8.158 2.633-.142-.438-8.158-2.633.142zm1.496 6.794l-3.399.68.517 2.585 3.399-.68-.517-2.585zm-4.459 1.973v.68h2.637v-.68h-2.637zm0 .68c0 2.81.239 6.768.708 11.854l2.625-.242c-.467-5.061-.696-8.924-.696-11.611h-2.637zm1.806 10.432l-8.186 1.291.397 2.606 8.217-1.296-.428-2.602zm-6.687 2.377c-.348-2.072-.53-5.014-.53-8.861h-2.637c0 3.902.183 7.012.566 9.297l2.601-.436zm-.53-8.861l.043-3.433-2.636-.064-.044 3.497h2.637zm-1.505-4.763c-4.543.805-9.242 1.223-14.098 1.252l.016 2.637c4.997-.03 9.845-.46 14.542-1.292l-.46-2.596zm-15.406 2.482a32.7 32.7 0 0 0-.068 2.171h2.636a30.55 30.55 0 0 1 .063-1.996l-2.631-.175zm-.068 2.171c0 3.136.261 7.069.775 11.788l2.621-.286c-.509-4.668-.76-8.498-.76-11.502h-2.636zm1.853 10.347c-3.228.579-6.059.952-8.5 1.123l.184 2.63c2.56-.18 5.488-.567 8.781-1.158l-.465-2.595z" fill="#0023fd" mask="url(#A)"/></g><defs><filter id="B" x=".218" y=".412" width="365.993" height="52.77" filterUnits="userSpaceOnUse" color-interpolation-filters="sRGB"><feFlood flood-opacity="0" result="A"/><feColorMatrix in="SourceAlpha" values="0 0 0 0 0 0 0 0 0 0 0 0 0 0 0 0 0 0 127 0" result="B"/><feOffset dy="2.63666"/><feGaussianBlur stdDeviation=".439"/><feComposite in2="B" operator="out"/><feColorMatrix values="0 0 0 0 0.34902 0 0 0 0 0.0156863 0 0 0 0 0.588235 0 0 0 1 0"/><feBlend in2="A"/><feBlend in="SourceGraphic"/></filter><linearGradient id="C" x1="183.5" y1="-2" x2="183.5" y2="56" gradientUnits="userSpaceOnUse"><stop stop-color="#fffdff"/><stop offset=".469" stop-color="#feff8e"/><stop offset=".641" stop-color="#fec72c"/><stop offset=".823" stop-color="#f93bb0"/></linearGradient></defs></svg>