<svg width="11" height="12" viewBox="0 0 11 12" fill="none" xmlns="http://www.w3.org/2000/svg">
<path d="M9.5251 10.7157H1.19064V4.16723H9.5251M7.73915 0V1.19064H2.9766V0H1.78595V1.19064H1.19064C0.529834 1.19064 0 1.72047 0 2.38127V10.7157C0 11.0315 0.125442 11.3344 0.34873 11.5577C0.572013 11.7809 0.874866 11.9064 1.19064 11.9064H9.5251C9.84088 11.9064 10.1437 11.7809 10.367 11.5577C10.5903 11.3344 10.7157 11.0315 10.7157 10.7157V2.38127C10.7157 2.0655 10.5903 1.76266 10.367 1.53937C10.1437 1.31607 9.84088 1.19064 9.5251 1.19064H8.92978V0M8.33447 6.5485H5.35787V9.5251H8.33447V6.5485Z" fill="url(#paint0_linear_10146_674)"/>
<defs>
<linearGradient id="paint0_linear_10146_674" x1="5.35787" y1="0" x2="5.35787" y2="11.9064" gradientUnits="userSpaceOnUse">
<stop stop-color="#10A7FF"/>
<stop offset="1" stop-color="#10A7FF"/>
</linearGradient>
</defs>
</svg>