<svg width="29" height="28" viewBox="0 0 29 28" fill="none" xmlns="http://www.w3.org/2000/svg">
<path d="M27.905 14.4113C27.905 21.6092 21.9424 27.4622 14.5648 27.4622C7.18722 27.4622 1.22462 21.6092 1.22462 14.4113C1.22462 7.21336 7.18722 1.36035 14.5648 1.36035C21.9424 1.36035 27.905 7.21336 27.905 14.4113Z" fill="white" stroke="#A211D8"/>
<g clip-path="url(#clip0_12735_10)">
<path d="M15.0605 16.4027C14.8986 16.4958 14.7165 16.533 14.5547 16.533C14.3928 16.533 14.2108 16.4958 14.0489 16.4027L5.99707 11.8795V17.8918C5.99707 19.1762 7.12999 20.2186 8.52592 20.2186H20.6037C21.9996 20.2186 23.1325 19.1762 23.1325 17.8918V11.8795L15.0605 16.4027Z" fill="url(#paint0_linear_12735_10)"/>
<path d="M20.6037 8.60352H8.52593C7.33231 8.60352 6.32077 9.38531 6.078 10.4277L14.5749 15.1929L23.0516 10.4277C22.8088 9.38531 21.7973 8.60352 20.6037 8.60352Z" fill="url(#paint1_linear_12735_10)"/>
</g>
<defs>
<linearGradient id="paint0_linear_12735_10" x1="14.5648" y1="8.60352" x2="14.5648" y2="20.2186" gradientUnits="userSpaceOnUse">
<stop stop-color="#EB7CF8"/>
<stop offset="1" stop-color="#8E14BE"/>
</linearGradient>
<linearGradient id="paint1_linear_12735_10" x1="14.5648" y1="8.60352" x2="14.5648" y2="20.2186" gradientUnits="userSpaceOnUse">
<stop stop-color="#EB7CF8"/>
<stop offset="1" stop-color="#8E14BE"/>
</linearGradient>
<clipPath id="clip0_12735_10">
<rect width="17.1355" height="16.7774" fill="white" transform="translate(5.99707 7.31299)"/>
</clipPath>
</defs>
</svg>
