<svg width="29" height="28" viewBox="0 0 29 28" fill="none" xmlns="http://www.w3.org/2000/svg">
<path d="M27.905 13.9172C27.905 21.1151 21.9424 26.9681 14.5648 26.9681C7.18722 26.9681 1.22462 21.1151 1.22462 13.9172C1.22462 6.71922 7.18722 0.866211 14.5648 0.866211C21.9424 0.866211 27.905 6.71922 27.905 13.9172Z" fill="white" stroke="#A211D8"/>
<g clip-path="url(#clip0_12735_11)">
<path d="M21.5171 17.2213L19.4775 15.2244C18.7491 14.5112 17.5108 14.7965 17.2195 15.7236C17.001 16.3655 16.2726 16.7221 15.617 16.5794C14.1602 16.2228 12.1935 14.3686 11.8293 12.8709C11.6108 12.229 12.0478 11.5158 12.7034 11.3019C13.6503 11.0166 13.9417 9.80422 13.2133 9.09105L11.1738 7.09415C10.591 6.59492 9.71696 6.59492 9.20708 7.09415L7.82312 8.44918C6.43916 9.87554 7.9688 13.6554 11.3923 17.0073C14.8158 20.3593 18.6763 21.9283 20.1331 20.5019L21.5171 19.1469C22.027 18.5763 22.027 17.7205 21.5171 17.2213Z" fill="url(#paint0_linear_12735_11)"/>
</g>
<defs>
<linearGradient id="paint0_linear_12735_11" x1="14.6075" y1="6.71973" x2="14.6075" y2="21.029" gradientUnits="userSpaceOnUse">
<stop stop-color="#F588FF"/>
<stop offset="1" stop-color="#8005B5"/>
</linearGradient>
<clipPath id="clip0_12735_11">
<rect width="15.8173" height="15.4868" fill="white" transform="translate(7.31549 5.52832)"/>
</clipPath>
</defs>
</svg>
