<svg width="11" height="12" viewBox="0 0 11 12" fill="none" xmlns="http://www.w3.org/2000/svg">
<path d="M7.87501 0C7.82851 0 3.375 0 3.375 0C2.58149 0 1.87501 0.72788 1.87501 1.50001L1.4415 1.51013C0.648375 1.51013 4.95718e-10 2.22787 6.67523e-10 3L2.33633e-09 10.5C2.50814e-09 11.2721 0.706503 12 1.50001 12H7.12501C7.9185 12 8.625 11.2721 8.625 10.5H9C9.79351 10.5 10.5 9.77215 10.5 9.00002L10.5 3.00901L7.87501 0ZM7.12501 11.25H1.50001C1.10626 11.25 0.750013 10.8822 0.750013 10.5L0.750013 3C0.750013 2.61788 1.07064 2.26237 1.46439 2.26237L1.87501 2.25L1.87501 9.00002C1.87501 9.77215 2.58149 10.5 3.375 10.5H7.87501C7.87501 10.8821 7.51874 11.25 7.12501 11.25ZM9.75001 9.00002C9.75001 9.38212 9.39375 9.75 9 9.75H3.375C2.98125 9.75 2.625 9.38214 2.625 9.00002L2.625 1.50001C2.625 1.11789 2.98125 0.750013 3.375 0.750013L7.12501 0.750013C7.11899 1.61364 7.12501 2.25939 7.12501 2.25939C7.12501 3.03864 7.82625 3.75001 8.625 3.75001C8.625 3.75001 9.02326 3.75001 9.75001 3.75001L9.75001 9.00002ZM8.625 3C8.22564 3 7.87501 2.27438 7.87501 1.88513C7.87501 1.88513 7.87501 1.49062 7.87501 0.761628L7.87501 0.760873L9.75001 3H8.625ZM7.87501 5.25676H4.50001C4.29301 5.25676 4.12501 5.42439 4.12501 5.63138C4.12501 5.83838 4.29301 6.006 4.50001 6.006H7.87501C8.082 6.006 8.25 5.83837 8.25 5.63138C8.25 5.42439 8.082 5.25676 7.87501 5.25676ZM7.87501 7.12988H4.50001C4.29301 7.12988 4.12501 7.29751 4.12501 7.50449C4.12501 7.7115 4.29301 7.87912 4.50001 7.87912H7.87501C8.082 7.87912 8.25 7.7115 8.25 7.50449C8.25 7.29751 8.082 7.12988 7.87501 7.12988Z" fill="white"/>
</svg>
